<svg width="95" height="14" viewBox="0 0 95 14" fill="none" xmlns="http://www.w3.org/2000/svg">
<path d="M7.5 0L9.0716 4.83688H14.1574L10.0429 7.82624L11.6145 12.6631L7.5 9.67376L3.3855 12.6631L4.9571 7.82624L0.842604 4.83688H5.9284L7.5 0Z" fill="#F2A33A"/>
<path d="M27.5 0L29.0716 4.83688H34.1574L30.0429 7.82624L31.6145 12.6631L27.5 9.67376L23.3855 12.6631L24.9571 7.82624L20.8426 4.83688H25.9284L27.5 0Z" fill="#F2A33A"/>
<path d="M47.5 0L49.0716 4.83688H54.1574L50.0429 7.82624L51.6145 12.6631L47.5 9.67376L43.3855 12.6631L44.9571 7.82624L40.8426 4.83688H45.9284L47.5 0Z" fill="#F2A33A"/>
<path d="M67.5 0L69.0716 4.83688H74.1574L70.0429 7.82624L71.6145 12.6631L67.5 9.67376L63.3855 12.6631L64.9571 7.82624L60.8426 4.83688H65.9284L67.5 0Z" fill="white"/>
<path d="M87.5 0L89.0716 4.83688H94.1574L90.0429 7.82624L91.6145 12.6631L87.5 9.67376L83.3855 12.6631L84.9571 7.82624L80.8426 4.83688H85.9284L87.5 0Z" fill="white"/>
</svg>
