<svg width="54" height="22" viewBox="0 0 54 22" fill="none" xmlns="http://www.w3.org/2000/svg">
<path d="M16.2146 10.5007C13.9222 10.5007 12.2889 12.0681 12.2889 14.2141V14.2288C12.2889 16.2356 13.7098 17.7151 15.7386 17.7151C17.1888 17.7151 18.1116 16.9753 18.4998 16.1404H18.6463C18.6463 16.2209 18.639 16.3015 18.639 16.3821C18.5584 18.4036 17.8479 20.0442 16.1707 20.0442C15.2405 20.0442 14.5887 19.5608 14.3104 18.821L14.2884 18.7478H12.428L12.4427 18.8284C12.7796 20.447 14.2298 21.5969 16.1707 21.5969C18.8294 21.5969 20.4334 19.4875 20.4334 15.928V15.9133C20.4334 12.1047 18.4705 10.5007 16.2146 10.5007ZM16.2073 16.2649C15.0062 16.2649 14.1346 15.386 14.1346 14.1628V14.1482C14.1346 12.969 15.0647 12.0388 16.2293 12.0388C17.4012 12.0388 18.3167 12.9836 18.3167 14.1921V14.2068C18.3167 15.4006 17.4012 16.2649 16.2073 16.2649ZM23.4586 14.4851C24.1324 14.4851 24.6231 13.9724 24.6231 13.3279C24.6231 12.676 24.1324 12.1707 23.4586 12.1707C22.7921 12.1707 22.294 12.676 22.294 13.3279C22.294 13.9724 22.7921 14.4851 23.4586 14.4851ZM23.4586 19.9197C24.1324 19.9197 24.6231 19.4143 24.6231 18.7625C24.6231 18.1106 24.1324 17.6052 23.4586 17.6052C22.7921 17.6052 22.294 18.1106 22.294 18.7625C22.294 19.4143 22.7921 19.9197 23.4586 19.9197ZM31.6107 21.3333H33.4198V19.3044H34.8407V17.7444H33.4198V10.7644H30.7465C29.3109 12.947 27.8095 15.3787 26.4398 17.759V19.3044H31.6107V21.3333ZM28.1977 17.7883V17.6785C29.223 15.884 30.4462 13.9285 31.5302 12.2732H31.64V17.7883H28.1977ZM38.9206 21.3333H40.8103V10.7644H38.9279L36.1667 12.7053V14.4851L38.7961 12.6248H38.9206V21.3333Z" fill="white"/>
</svg>
